<svg width="200" height="100" xmlns="http://www.w3.org/2000/svg">
 <!-- Created with Method Draw - http://github.com/duopixel/Method-Draw/ -->
 <g>
  <title>background</title>
  <rect fill="#fff" id="canvas_background" height="102" width="202" y="-1" x="-1"/>
  <g display="none" overflow="visible" y="0" x="0" height="100%" width="100%" id="canvasGrid">
   <rect fill="url(#gridpattern)" stroke-width="0" y="0" x="0" height="100%" width="100%"/>
  </g>
 </g>
 <g>
  <title>Layer 1</title>
  <rect stroke="#000" id="svg_1" height="36.498925" width="200.494096" y="-0.373515" x="0.127943" stroke-width="0.5" fill="#a0d58a"/>
  <text xml:space="preserve" text-anchor="start" font-family="Helvetica, Arial, sans-serif" font-size="32" id="svg_2" y="62.374638" x="9.127678" stroke-width="0" stroke="#000" fill="#000000">Romeo Arce</text>
  <rect stroke="#000" id="svg_3" height="35.498954" width="200.494096" y="64.374576" x="0.127943" stroke-width="0.5" fill="#a0d58a"/>
  <path id="svg_4" d="m9.06329,20.44017l7.352681,0l2.272035,-6.588738l2.272036,6.588738l7.35268,0l-5.948433,4.072017l2.272153,6.588738l-5.948435,-4.072128l-5.948434,4.072128l2.272153,-6.588738l-5.948435,-4.072017z" stroke-opacity="null" stroke-width="0.5" stroke="#000" fill="#090a09"/>
  <path id="svg_7" d="m29.562685,20.440165l7.35268,0l2.27204,-6.58873l2.27203,6.58873l7.35268,0l-5.94843,4.07202l2.27215,6.58874l-5.94843,-4.07213l-5.94844,4.07213l2.27215,-6.58874l-5.94843,-4.07202z" stroke-opacity="null" stroke-width="0.5" stroke="#000" fill="#090a09"/>
  <path id="svg_8" d="m50.062081,20.440167l7.35268,0l2.27204,-6.58874l2.27203,6.58874l7.35268,0l-5.94843,4.07202l2.27215,6.58874l-5.94843,-4.07213l-5.94844,4.07213l2.27215,-6.58874l-5.94843,-4.07202z" stroke-opacity="null" stroke-width="0.5" stroke="#000" fill="#090a09"/>
  <path id="svg_9" d="m70.561475,20.440165l7.35268,0l2.27204,-6.58873l2.27203,6.58873l7.35268,0l-5.94843,4.07202l2.27215,6.58874l-5.94843,-4.07213l-5.94844,4.07213l2.27215,-6.58874l-5.94843,-4.07202z" stroke-opacity="null" stroke-width="0.5" stroke="#000" fill="#090a09"/>
  <path id="svg_17" d="m91.310871,20.440167l7.35268,0l2.27204,-6.58874l2.27203,6.58874l7.35268,0l-5.94843,4.07202l2.27215,6.58874l-5.94843,-4.07213l-5.94844,4.07213l2.27215,-6.58874l-5.94843,-4.07202z" stroke-opacity="null" stroke-width="0.5" stroke="#000" fill="#090a09"/>
  <path id="svg_18" d="m111.810271,20.440167l7.35268,0l2.27204,-6.58873l2.27203,6.58873l7.35268,0l-5.94843,4.07202l2.27215,6.58874l-5.94843,-4.07213l-5.94844,4.07213l2.27215,-6.58874l-5.94843,-4.07202z" stroke-opacity="null" stroke-width="0.5" stroke="#000" fill="#090a09"/>
  <path id="svg_19" d="m132.309661,20.440167l7.35268,0l2.27204,-6.58874l2.27203,6.58874l7.35268,0l-5.94843,4.07202l2.27215,6.58874l-5.94843,-4.07213l-5.94844,4.07213l2.27215,-6.58874l-5.94843,-4.07202z" stroke-opacity="null" stroke-width="0.5" stroke="#000" fill="#090a09"/>
  <path id="svg_20" d="m152.809061,20.440167l7.35268,0l2.27204,-6.58873l2.27203,6.58873l7.35268,0l-5.94843,4.07202l2.27215,6.58874l-5.94843,-4.07213l-5.94844,4.07213l2.27215,-6.58874l-5.94843,-4.07202z" stroke-opacity="null" stroke-width="0.5" stroke="#000" fill="#090a09"/>
  <path id="svg_21" d="m173.308455,20.440167l7.35268,0l2.27204,-6.58873l2.27203,6.58873l7.35268,0l-5.94843,4.07202l2.27215,6.58874l-5.94843,-4.07213l-5.94844,4.07213l2.27215,-6.58874l-5.94843,-4.07202z" stroke-opacity="null" stroke-width="0.5" stroke="#000" fill="#090a09"/>
  <path id="svg_22" d="m9.563275,79.688427l7.35268,0l2.27204,-6.58874l2.27203,6.58874l7.35268,0l-5.94843,4.07202l2.27215,6.58873l-5.94843,-4.07212l-5.94844,4.07212l2.27215,-6.58873l-5.94843,-4.07202z" stroke-opacity="null" stroke-width="0.5" stroke="#000" fill="#090a09"/>
  <path id="svg_23" d="m30.062675,79.688427l7.35268,0l2.27204,-6.58873l2.27203,6.58873l7.35268,0l-5.94843,4.07202l2.27215,6.58874l-5.94843,-4.07213l-5.94844,4.07213l2.27215,-6.58874l-5.94843,-4.07202z" stroke-opacity="null" stroke-width="0.5" stroke="#000" fill="#090a09"/>
  <path id="svg_24" d="m50.562065,79.688427l7.35268,0l2.27204,-6.58874l2.27203,6.58874l7.35268,0l-5.94843,4.07202l2.27215,6.58874l-5.94843,-4.07213l-5.94844,4.07213l2.27215,-6.58874l-5.94843,-4.07202z" stroke-opacity="null" stroke-width="0.5" stroke="#000" fill="#090a09"/>
  <path id="svg_25" d="m71.061455,79.688417l7.35268,0l2.27204,-6.58873l2.27203,6.58873l7.35268,0l-5.94843,4.07202l2.27215,6.58874l-5.94843,-4.07213l-5.94844,4.07213l2.27215,-6.58874l-5.94843,-4.07202z" stroke-opacity="null" stroke-width="0.5" stroke="#000" fill="#090a09"/>
  <path id="svg_26" d="m91.810855,79.688427l7.35268,0l2.27204,-6.58874l2.27203,6.58874l7.35268,0l-5.94843,4.07202l2.27215,6.58874l-5.94843,-4.07213l-5.94844,4.07213l2.27215,-6.58874l-5.94843,-4.07202z" stroke-opacity="null" stroke-width="0.5" stroke="#000" fill="#090a09"/>
  <path id="svg_27" d="m112.310255,79.688427l7.35268,0l2.27204,-6.58873l2.27203,6.58873l7.35268,0l-5.94843,4.07202l2.27215,6.58874l-5.94843,-4.07213l-5.94844,4.07213l2.27215,-6.58874l-5.94843,-4.07202z" stroke-opacity="null" stroke-width="0.5" stroke="#000" fill="#090a09"/>
  <path id="svg_28" d="m132.809645,79.688427l7.35268,0l2.27204,-6.58874l2.27203,6.58874l7.35268,0l-5.94843,4.07202l2.27215,6.58874l-5.94843,-4.07213l-5.94844,4.07213l2.27215,-6.58874l-5.94843,-4.07202z" stroke-opacity="null" stroke-width="0.5" stroke="#000" fill="#090a09"/>
  <path id="svg_29" d="m153.309045,79.688427l7.35268,0l2.27204,-6.58873l2.27203,6.58873l7.35268,0l-5.94843,4.07202l2.27215,6.58874l-5.94843,-4.07213l-5.94844,4.07213l2.27215,-6.58874l-5.94843,-4.07202z" stroke-opacity="null" stroke-width="0.5" stroke="#000" fill="#090a09"/>
  <path id="svg_30" d="m173.808445,79.688427l7.35268,0l2.27204,-6.58873l2.27203,6.58873l7.35268,0l-5.94843,4.07202l2.27215,6.58874l-5.94843,-4.07213l-5.94844,4.07213l2.27215,-6.58874l-5.94843,-4.07202z" stroke-opacity="null" stroke-width="0.5" stroke="#000" fill="#090a09"/>
 </g>
</svg>